HIERARCHY
ROOT Hips
{
  OFFSET -331.093 83.8371 -317.828
  CHANNELS 6 Xposition Yposition Zposition Zrotation Xrotation Yrotation
  JOINT LeftUpLeg
  {
    OFFSET 8.64259 1.95398 -2.38835
    CHANNELS 3 Zrotation Xrotation Yrotation
    JOINT LeftLeg
    {
      OFFSET 43.7702 0 0
      CHANNELS 3 Zrotation Xrotation Yrotation
      JOINT LeftFoot
      {
        OFFSET 40.6238 0 0
        CHANNELS 3 Zrotation Xrotation Yrotation
        JOINT LeftToeBase
        {
          OFFSET 12.7242 0 0
          CHANNELS 3 Zrotation Xrotation Yrotation
          End Site
          {
            OFFSET 0 0 0
          }
        }
      }
    }
  }
  JOINT RightUpLeg
  {
    OFFSET -8.2249 1.95398 -2.59336
    CHANNELS 3 Zrotation Xrotation Yrotation
    JOINT RightLeg
    {
      OFFSET 43.5653 0 0
      CHANNELS 3 Zrotation Xrotation Yrotation
      JOINT RightFoot
      {
        OFFSET 40.6238 0 0
        CHANNELS 3 Zrotation Xrotation Yrotation
        JOINT RightToeBase
        {
          OFFSET 12.7242 0 0
          CHANNELS 3 Zrotation Xrotation Yrotation
          End Site
          {
            OFFSET 0 0 0
          }
        }
      }
    }
  }
  JOINT Spine
  {
    OFFSET 0.165834 0.87714 6.61349
    CHANNELS 3 Zrotation Xrotation Yrotation
    JOINT Spine1
    {
      OFFSET 7.38963 1.71661e-005 0
      CHANNELS 3 Zrotation Xrotation Yrotation
      JOINT Spine2
      {
        OFFSET 11.9445 1.14441e-005 0
        CHANNELS 3 Zrotation Xrotation Yrotation
        JOINT Spine3
        {
          OFFSET 14.7254 4.19617e-005 0
          CHANNELS 3 Zrotation Xrotation Yrotation
          JOINT Spine4
          {
            OFFSET 10.9679 0 0
            CHANNELS 3 Zrotation Xrotation Yrotation
            JOINT RightShoulder
            {
              OFFSET 2.46616 -1.6653 3.69651
              CHANNELS 3 Zrotation Xrotation Yrotation
              JOINT RightArm
              {
                OFFSET 13.0012 0 0
                CHANNELS 3 Zrotation Xrotation Yrotation
                JOINT RightForeArm
                {
                  OFFSET 28.7848 1.62311e-005 0
                  CHANNELS 3 Zrotation Xrotation Yrotation
                  JOINT RightHand
                  {
                    OFFSET 26.5688 1.62095e-005 0
                    CHANNELS 3 Zrotation Xrotation Yrotation
                    End Site
                    {
                      OFFSET 0 0 0
                    }
                  }
                }
              }
            }
            JOINT LeftShoulder
            {
              OFFSET 2.38034 -1.29275 -3.7523
              CHANNELS 3 Zrotation Xrotation Yrotation
              JOINT LeftArm
              {
                OFFSET 16.3182 6.07031e-005 0
                CHANNELS 3 Zrotation Xrotation Yrotation
                JOINT LeftForeArm
                {
                  OFFSET 27.0901 0 0
                  CHANNELS 3 Zrotation Xrotation Yrotation
                  JOINT LeftHand
                  {
                    OFFSET 24.5451 1.51738e-005 0
                    CHANNELS 3 Zrotation Xrotation Yrotation
                    End Site
                    {
                      OFFSET 0 0 0
                    }
                  }
                }
              }
            }
            JOINT Neck
            {
              OFFSET 5.0226 -0.0266342 0
              CHANNELS 3 Zrotation Xrotation Yrotation
              JOINT Head
              {
                OFFSET 6.69364 2.86102e-005 0
                CHANNELS 3 Zrotation Xrotation Yrotation
                End Site
                {
                  OFFSET 0 0 0
                }
              }
            }
          }
        }
      }
    }
  }
}
MOTION
Frames:	7
Frame Time:	0.0416667
-164.858 93.6398 -193.001 82.5341 -16.2586 84.1059 -176.703 9.20098 83.3581 -28.8799 11.1005 -1.39377 73.0563 14.3412 10.457 44.0396 14.4791 6.26091 177.905 43.3629 92.2009 -32.7562 -1.27348 -0.582 67.1656 -3.09536 -1.79425 45.5618 -3.03666 -10.0989 -0.296619 7.83073 -90.0937 11.2123 -0.633842 -0.124273 -0.458473 -0.638717 -0.0962649 -22.9947 -0.567227 -0.309044 -2.98201 -0.567199 -0.309031 90.8332 -44.5431 -100.408 29.5294 -15.4902 14.483 -6.42534 -7.82021 -45.1002 -0.892239 -0.108576 -0.393879 -95.5466 -45.574 69.6082 -18.0408 28.8125 2.37808 7.51591 2.55746 -55.8342 10.729 0.957437 4.69189 -20.4408 -14.4359 -9.17354 -15.8069 -13.7896 -11.048 
-160.292 93.1085 -190.819 83.5804 -14.3695 83.6706 -176.938 3.72764 83.4549 -26.1397 13.6687 -0.888418 72.7702 14.4874 11.2014 45.4623 14.8638 4.46407 177.636 41.1958 89.2234 -22.0203 1.35494 -0.898844 66.7049 -3.33598 -1.84312 43.1976 -2.59401 -9.384 -0.448878 7.80025 -89.9973 11.274 -0.891973 0.0938897 -0.396593 -0.886996 0.133057 -22.9342 -0.878943 -0.178544 -2.92151 -0.878959 -0.178546 90.7633 -45.9956 -100.162 30.7548 -14.5938 16.9452 -6.62661 -8.16084 -43.8044 0.241977 -0.0481379 1.12353 -94.856 -45.2343 70.559 -19.1791 27.9165 3.09471 8.08061 5.24112 -52.5117 9.98582 0.871558 4.49877 -21.0743 -13.3948 -9.84826 -10.5093 -13.3667 -10.025 
-155.234 91.907 -188.274 84.0071 -14.0156 82.9363 -176.56 -0.939237 83.781 -24.8438 15.8813 -0.804598 72.3841 14.186 11.8164 48.9369 17.6472 4.02047 176.779 41.7006 87.4052 -19.6082 6.26466 -0.67136 67.6356 -3.5939 -1.9568 40.8792 -1.75193 -6.69412 -0.483274 7.7594 -89.9466 11.3561 -0.936639 0.200132 -0.314545 -0.926936 0.241153 -22.8524 -0.953487 -0.0906538 -2.83975 -0.953491 -0.0906588 90.7895 -45.9276 -100.136 31.9819 -13.7406 18.4805 -6.94711 -8.9734 -42.3637 1.14307 -0.0142951 0.837604 -94.9374 -45.856 70.6331 -20.0911 26.3883 4.21897 7.65917 6.97044 -49.7323 9.73676 0.884511 4.80216 -21.6728 -13.0998 -9.64003 -2.6533 -13.7324 -8.41223 
-149.749 90.5861 -185.179 83.499 -13.8803 83.264 -175.87 -4.07125 86.0352 -25.5702 18.5572 -0.167349 71.1477 12.0443 10.1998 53.5097 23.0154 6.1899 175.556 43.7382 87.2763 -24.5807 10.3229 0.326059 66.7462 -3.09028 -1.72668 36.2114 -1.09708 -5.39159 -0.524955 7.65167 -90.1094 11.5713 -1.09546 -0.103412 -0.0991891 -1.09895 -0.0550985 -22.6376 -1.01373 -0.427893 -2.625 -1.01374 -0.427896 91.3586 -45.4176 -99.342 31.9141 -13.4942 18.629 -7.62283 -10.4536 -41.1256 2.01399 0.0334436 1.45355 -95.1886 -46.203 70.3606 -22.4878 23.9062 5.42704 7.20737 10.2048 -45.0932 10.0915 0.896692 4.65479 -19.9686 -12.6444 -9.09191 2.17246 -13.2919 -6.01789 
-143.624 89.5847 -181.144 82.8565 -16.3769 83.5679 -174.949 -7.62024 88.2248 -25.363 21.3647 0.243215 67.4239 8.27839 7.97225 57.0111 27.7214 8.32947 174.052 47.5065 89.8242 -37.7545 10.8789 1.70143 66.1446 -2.16829 -1.33252 37.0855 -1.51376 -7.09166 -0.502982 7.66588 -90.2483 11.5402 -1.11665 -0.380276 -0.130331 -1.1323 -0.330766 -22.668 -0.950731 -0.698316 -2.65534 -0.950738 -0.698321 90.9884 -45.5269 -99.9125 29.5376 -12.7671 16.3826 -7.95866 -11.6976 -39.477 2.48257 0.0379091 1.1122 -95.6356 -46.7223 69.8494 -25.2445 18.7957 7.11781 6.50849 13.458 -39.5399 10.5133 0.94397 4.77007 -16.8864 -11.9354 -7.78079 4.57158 -12.3374 -5.11211 
-136.911 89.3894 -176.434 82.9688 -19.4719 84.7506 -173.284 -9.78685 91.6404 -27.4099 24.2507 0.354187 59.4044 1.12922 4.0268 53.3575 31.1424 18.5252 171.589 46.0028 93.6214 -45.0739 10.5097 3.10765 67.6784 -2.33708 -1.39537 36.3819 -1.37582 -6.66655 -0.564453 7.6844 -90.3909 11.5014 -1.30574 -0.645324 -0.168991 -1.33284 -0.587233 -22.7066 -1.05142 -1.00793 -2.69392 -1.05139 -1.00792 90.7488 -44.4418 -100.566 29.1163 -10.9027 13.907 -8.1696 -11.1772 -39.2891 1.81391 0.0469354 2.39912 -95.841 -46.955 69.6148 -27.9684 15.8457 10.8457 4.16981 13.1454 -35.3213 10.8502 0.997817 4.99935 -14.2536 -10.6658 -5.25277 5.23947 -10.9201 -5.23291 
-129.918 89.2894 -171.233 82.7515 -22.1665 84.4255 -172.256 -5.15629 93.9311 -37.9818 21.5217 0.417191 49.3151 -7.83599 -3.45829 35.8343 14.099 23.1506 170.596 43.3219 96.1132 -51.6438 8.88029 3.31183 75.0866 -5.07988 -2.63101 30.7036 -0.832818 -5.93983 -0.486044 7.53792 -90.3428 11.7953 -1.12771 -0.563704 0.124759 -1.15144 -0.513527 -22.4121 -0.90617 -0.876578 -2.39943 -0.906172 -0.876585 90.9828 -42.6654 -100.629 29.8507 -10.1022 12.1706 -6.89209 -8.27854 -39.909 -0.65666 -0.0908663 1.77393 -95.3837 -47.0922 70.3488 -29.4681 15.3519 12.107 2.68164 15.173 -30.8862 8.28588 0.570866 2.74871 -12.7632 -10.1343 -3.70093 4.80023 -10.3342 -5.31045 
